<svg xmlns="http://www.w3.org/2000/svg" fill="none" viewBox="0 0 65 64" height="64" width="65">
<path fill="#E6E8EA" d="M44.4 6.66669C51.0274 6.66669 56.4 12.0393 56.4 18.6667C56.4 25.2941 51.0274 30.6667 44.4 30.6667C37.7725 30.6667 32.4 25.2941 32.4 18.6667C32.4 12.0393 37.7725 6.66669 44.4 6.66669ZM44.4 24L39.0666 18.6667L44.4 13.3334L49.7333 18.6667L44.4 24Z" clip-rule="evenodd" fill-rule="evenodd"></path>
<path fill="#F0B90B" d="M19.0667 8C22.0122 8.00006 24.3999 10.388 24.3999 13.3334C24.3999 16.2788 22.0122 18.6667 19.0666 18.6667C16.1212 18.6666 13.7333 16.2786 13.7333 13.3332C13.7333 10.3877 16.1211 8 19.0667 8Z"></path>
<path fill="#76808E" d="M13.7333 21.3333C10.7878 21.3333 8.39996 23.7211 8.39996 26.6666V29.3333H29.7333V26.6666C29.7333 23.7211 27.3455 21.3333 24.4 21.3333H23.0666L19.0666 25.3333L15.0666 21.3333H13.7333Z" clip-rule="evenodd" fill-rule="evenodd"></path>
<path fill="#F0B90B" d="M45.7333 34.6667C42.7878 34.6668 40.4 37.0547 40.4 40.0001C40.4 42.9455 42.7877 45.3334 45.7333 45.3334C48.6788 45.3333 51.0667 42.9453 51.0667 39.9999C51.0667 37.0544 48.6788 34.6667 45.7333 34.6667Z"></path>
<path fill="#76808E" d="M51.0666 48C54.0121 48 56.4 50.3878 56.4 53.3333V56H35.0666V53.3333C35.0666 50.3878 37.4544 48 40.4 48H41.7333L45.7333 52L49.7333 48H51.0666Z" clip-rule="evenodd" fill-rule="evenodd"></path>
<path fill="#E6E8EA" d="M31.0271 40.3635L25.3702 34.7067L21.599 38.4779L27.2558 44.1348L31.0271 40.3635ZM19.7134 40.3636L25.3702 46.0204L14.0565 57.3341H8.39966L8.39966 51.6773L19.7134 40.3636Z" clip-rule="evenodd" fill-rule="evenodd"></path>
</svg>
