<svg xmlns="http://www.w3.org/2000/svg" fill="none" viewBox="0 0 64 64" height="64" width="64">
<path fill="#E6E8EA" d="M44 6.66669C50.6274 6.66669 56 12.0393 56 18.6667C56 25.2941 50.6274 30.6667 44 30.6667C37.3726 30.6667 32 25.2941 32 18.6667C32 12.0393 37.3726 6.66669 44 6.66669ZM44 24L38.6667 18.6667L44 13.3334L49.3333 18.6667L44 24Z" clip-rule="evenodd" fill-rule="evenodd"></path>
<path fill="#F0B90B" d="M18.6667 8C21.6122 8.00006 24 10.388 24 13.3334C24 16.2788 21.6123 18.6667 18.6667 18.6667C15.7212 18.6666 13.3333 16.2786 13.3333 13.3332C13.3333 10.3877 15.7212 8 18.6667 8Z"></path>
<path fill="#76808E" d="M13.3333 21.3333C10.3878 21.3333 8 23.7211 8 26.6666V29.3333H29.3333V26.6666C29.3333 23.7211 26.9455 21.3333 24 21.3333H22.6667L18.6667 25.3333L14.6667 21.3333H13.3333Z" clip-rule="evenodd" fill-rule="evenodd"></path>
<path fill="#F0B90B" d="M45.3333 34.6667C42.3878 34.6668 40 37.0547 40 40.0001C40 42.9455 42.3877 45.3334 45.3333 45.3334C48.2788 45.3333 50.6667 42.9453 50.6667 39.9999C50.6667 37.0544 48.2788 34.6667 45.3333 34.6667Z"></path>
<path fill="#76808E" d="M50.6667 48C53.6122 48 56 50.3878 56 53.3333V56H34.6667V53.3333C34.6667 50.3878 37.0545 48 40 48H41.3333L45.3333 52L49.3333 48H50.6667Z" clip-rule="evenodd" fill-rule="evenodd"></path>
<path fill="#E6E8EA" d="M13.5629 36.5525L15.4483 34.6667L17.3336 36.5523V34.6667H20.0003V36.5518L21.885 34.6667L23.7704 36.5525L20.0003 40.3234V44.3576L23.4924 42.341L24.8728 37.1892L27.4484 37.8794L26.7582 40.4551L28.391 39.5123L29.724 41.8217L28.0913 42.7645L30.6667 43.4547L29.9765 46.0308L24.8257 44.6503L21.3328 46.6674L24.8255 48.6842L29.9763 47.3041L30.6665 49.8801L28.0913 50.5701L29.724 51.513L28.3909 53.8224L26.7582 52.8796L27.4483 55.4554L24.8727 56.1457L23.4926 50.9938L20.0003 48.9771V53.0114L23.7704 56.7823L21.885 58.6681L20.0003 56.783V58.6681H17.3336V56.7824L15.4483 58.6681L13.5629 56.7823L17.3336 53.0108V48.9768L13.8407 50.9938L12.4606 56.1457L9.88502 55.4554L10.5751 52.8796L8.9424 53.8224L7.60934 51.513L9.24204 50.5701L6.66676 49.8801L7.357 47.3041L12.5079 48.6842L16.0005 46.6674L12.5076 44.6503L7.35677 46.0308L6.66666 43.4547L9.24198 42.7645L7.60928 41.8217L8.94234 39.5123L10.5751 40.4551L9.88492 37.8794L12.4605 37.1892L13.8409 42.341L17.3336 44.358V40.3239L13.5629 36.5525Z" clip-rule="evenodd" fill-rule="evenodd"></path>
</svg>
