<svg xmlns="http://www.w3.org/2000/svg" fill="none" viewBox="0 0 65 64" height="64" width="65">
<path fill="#E6E8EA" d="M24.2961 56C21.1847 55.9905 17.611 54.7548 13.9334 51.0771V32H29.7333L39.3929 41.6596C36.9818 44.0707 33.0725 44.0707 30.6614 41.6596L26.5324 37.5306L25.1867 38.8763L31.5905 45.3492L51.2667 45.3491C51.2667 51.2272 46.5016 55.9923 40.6236 55.9923L24.4495 56H24.2961Z" clip-rule="evenodd" fill-rule="evenodd"></path>
<path fill="#76808E" d="M5.93338 32L13.9334 32L13.9334 56L5.93338 56L5.93338 32Z"></path>
<path fill="#76808E" d="M31.9436 21.7004V18.2996L29.934 16.1596L33.9532 9.17369L36.8047 9.85018L39.7395 8.14978L40.5815 5.33331H48.6199L49.4618 8.14978L52.3967 9.85018L55.2482 9.17369L59.2674 16.1596L57.2578 18.2996V21.7004L59.2674 23.8404L55.2482 30.8263L52.3966 30.1498L49.4618 31.8502L48.6199 34.6666H40.5815L39.7395 31.8502L36.8048 30.1498L33.9532 30.8263L29.934 23.8404L31.9436 21.7004ZM44.6007 28C49.019 28 52.6007 24.4183 52.6007 20C52.6007 15.5817 49.019 12 44.6007 12C40.1824 12 36.6007 15.5817 36.6007 20C36.6007 24.4183 40.1824 28 44.6007 28Z" clip-rule="evenodd" fill-rule="evenodd"></path>
<path fill="#F0B90B" d="M44.6007 24C42.3916 24 40.6007 22.2091 40.6007 20C40.6007 17.7909 42.3916 16 44.6007 16C46.8098 16 48.6007 17.7909 48.6007 20C48.6007 22.2091 46.8098 24 44.6007 24Z"></path>
</svg>
